<?xml version="1.0" encoding="utf-8"?>
<!-- Generator: Adobe Illustrator 19.1.0, SVG Export Plug-In . SVG Version: 6.00 Build 0)  -->
<svg version="1.1" id="Capa_1" xmlns="http://www.w3.org/2000/svg" xmlns:xlink="http://www.w3.org/1999/xlink" x="0px" y="0px"
	 viewBox="0 0 944.2 212.5" style="enable-background:new 0 0 944.2 212.5;" xml:space="preserve">
<style type="text/css">
	.st0{fill-rule:evenodd;clip-rule:evenodd;fill:#FFFFFF;}
	.st1{fill-rule:evenodd;clip-rule:evenodd;fill:#E31C79;}
</style>
<g>
	<path class="st0" d="M323.7,83.2c-6.2,0-11.6,3.4-15,8c-9.3-5.2-20.2-8.3-31.8-8.3c-35.7,0-64.6,29-64.6,64.6
		c0,35.7,29,64.6,64.6,64.6c11.4,0,22.2-3.1,31.5-8.3c3.4,4.9,8.8,8.3,15.3,8.3c9.8,0,17.8-8,17.8-17.8v-93.3
		C341.5,91.3,333.5,83.2,323.7,83.2 M294,164.7c-4.7,4.4-10.6,7-17.1,7c-6.5,0-12.4-2.6-17.1-7c-4.7-4.7-7-10.6-7-17.1
		c0-6.5,2.3-12.4,7-17.1c4.7-4.7,10.6-7,17.1-7c6.5,0,12.4,2.3,17.1,7c4.4,4.7,7,10.6,7,17.1C300.9,154.1,298.4,160,294,164.7"/>
	<path class="st0" d="M446,99.8C435.1,88.9,420.9,83,405.9,83c-9.1,0-17.6,2.1-25.6,6c-3.1-3.4-8-5.7-13.2-5.7
		c-9.8,0-17.8,8-17.8,17.8v91c0,11.1,9,20.4,20.2,20.4c11.4,0,20.4-9.3,20.4-20.4v-52.2c0-9,7.2-16,16-16c8.8,0,16,7,16,16v52.2
		c0,11.1,9.1,20.4,20.2,20.4c11.4,0,20.4-9.3,20.4-20.4v-52.2C462.5,124.6,456.6,110.4,446,99.8"/>
	<path class="st0" d="M580.4,83.2c-6.2,0-11.6,3.4-15,8c-9.3-5.2-20.2-8.3-31.8-8.3c-35.7,0-64.6,29-64.6,64.6
		c0,35.7,29,64.6,64.6,64.6c11.4,0,22.2-3.1,31.5-8.3c3.4,4.9,8.8,8.3,15.3,8.3c9.8,0,17.8-8,17.8-17.8v-93.3
		C598.3,91.3,590.3,83.2,580.4,83.2 M550.7,164.7c-4.7,4.4-10.6,7-17.1,7c-6.5,0-12.4-2.6-17.1-7c-4.7-4.7-7-10.6-7-17.1
		c0-6.5,2.3-12.4,7-17.1c4.7-4.7,10.6-7,17.1-7c6.5,0,12.4,2.3,17.1,7c4.4,4.7,7,10.6,7,17.1C557.7,154.1,555.1,160,550.7,164.7"/>
	<path class="st1" d="M670.4,83.2c-8.5,0-16.6,1.8-23.8,4.7V63.1c0-11.1-9.1-20.2-20.4-20.2c-11.1,0-20.2,9.1-20.2,20.2v55.9v28.2
		v0.8v0.5v46c0,9.8,7.8,17.8,17.8,17.8c6.2,0,11.9-3.1,15-8.3c9.3,5.2,19.9,8.3,31.5,8.3c35.7,0,64.4-29,64.4-64.4
		C734.8,112.2,706.1,83.2,670.4,83.2 M687.5,164.7c-4.7,4.7-10.6,7.2-17.1,7.2c-6.5,0-12.4-2.6-17.1-7.2c-4.4-4.4-7-10.6-7-16.8
		c0-6.5,2.6-12.7,7-17.1c4.7-4.7,10.6-7.2,17.1-7.2c6.5,0,12.4,2.6,17.1,7.2c4.4,4.4,7,10.6,7,17.1
		C694.5,154.1,691.9,160.3,687.5,164.7"/>
	<path class="st1" d="M842.7,159.5c0.5,0,1.6,0.3,2.3,0.3c1,0,1.8-0.3,2.6-0.3c10.9-1.3,18.9-11.6,17.3-22.7
		c-1.8-15.8-9.6-29.7-21.5-39.6c-10.9-9.3-25.6-14-40.6-14c-8.5,0-16.8,1.3-24.6,4.7c-7.5,3.4-14,8-19.9,14
		c-5.4,5.9-9.8,12.7-13.2,20.4c-3.4,8-5.2,16.3-5.2,25.1v1v1c0,8.8,1.8,17.3,5.4,24.8c3.1,7.8,7.8,14.5,13.5,20.2
		c12.2,11.6,28.2,18.1,46,18.1c14.5,0,29.2-4.4,40.4-12.4c7.8-5.4,9.8-16.8,4.7-24.8c-5.7-8-16.3-10.3-24.1-4.7
		c-5.4,3.9-13.5,6.2-21,6.2c-8.8,0-16.6-3.1-22-8.3c-2.8-2.3-4.9-5.7-6.2-9h64.9H842.7z M821.5,131.1h-35.7H778
		c2.6-9.3,12.7-16,24.8-16c11.9,0,22,6.7,24.3,16h-6H821.5z"/>
	<path class="st1" d="M924,171.9c-7.2,0-13.2-5.9-13.2-13.2v-1.6v-1.6v-36.4h15.5c9.8,0,17.8-8,17.8-17.8c0-10.1-8-18.1-17.8-18.1
		h-15.5V62.3c0-11.1-9-20.2-20.2-20.2c-11.4,0-20.4,9-20.4,20.2v93.3v1.6v1.6c0,14.5,5.7,27.9,15.8,38.3c10.1,9.8,23.5,15.5,38,15.5
		c11.1,0,20.2-9,20.2-20.4C944.2,181,935.1,171.9,924,171.9"/>
	<path class="st0" d="M111.9,140.1l22.2,54.4c0.6,1.3,0.9,2.8,1.6,3.8v0.3c3.4,8.4,11.6,13.4,20.3,13.4c0.9,0,1.9,0,2.8-0.3
		c9.4-0.3,17.8-5.9,21.6-15.3l66.7-162.5c5.3-12.5-0.9-26.9-13.4-31.9c-12.5-5.3-26.9,0.6-31.9,13.4l-47.3,114.4l-22.2-54.7
		L111.9,140.1z"/>
	<path class="st1" d="M111.8,140.2l21-51.5c4.3-10.4-1.6-22.1-12.8-25.8c-11.2-4-24.3,1.6-28.3,12.2l-22.2,54.7L47.2,77
		c-5-12.8-19.4-18.7-31.9-13.4C2.8,68.6-3.4,82.9,1.9,95.4l41.5,100.9c3.8,9.4,12.2,15,21.6,15.3c0.9,0.3,1.9,0.3,2.8,0.3
		c8.7,0,16.9-5,20.3-13.4v-0.3c0.6-0.9,0.9-2.5,1.6-3.8L111.8,140.2z"/>
</g>
</svg>
